<svg id="visual" viewBox="0 0 900 600" width="900" height="600" xmlns="http://www.w3.org/2000/svg" xmlns:xlink="http://www.w3.org/1999/xlink" version="1.1"><rect x="0" y="0" width="900" height="600" fill="#2F2D61"></rect><defs><linearGradient id="grad1_0" x1="33.3%" y1="0%" x2="100%" y2="100%"><stop offset="20%" stop-color="#d4d0ff" stop-opacity="1"></stop><stop offset="80%" stop-color="#d4d0ff" stop-opacity="1"></stop></linearGradient></defs><defs><linearGradient id="grad1_1" x1="33.3%" y1="0%" x2="100%" y2="100%"><stop offset="20%" stop-color="#d4d0ff" stop-opacity="1"></stop><stop offset="80%" stop-color="#a8a4d5" stop-opacity="1"></stop></linearGradient></defs><defs><linearGradient id="grad1_2" x1="33.3%" y1="0%" x2="100%" y2="100%"><stop offset="20%" stop-color="#7e7aad" stop-opacity="1"></stop><stop offset="80%" stop-color="#a8a4d5" stop-opacity="1"></stop></linearGradient></defs><defs><linearGradient id="grad1_3" x1="33.3%" y1="0%" x2="100%" y2="100%"><stop offset="20%" stop-color="#7e7aad" stop-opacity="1"></stop><stop offset="80%" stop-color="#565286" stop-opacity="1"></stop></linearGradient></defs><defs><linearGradient id="grad1_4" x1="33.3%" y1="0%" x2="100%" y2="100%"><stop offset="20%" stop-color="#2f2d61" stop-opacity="1"></stop><stop offset="80%" stop-color="#565286" stop-opacity="1"></stop></linearGradient></defs><defs><linearGradient id="grad2_0" x1="0%" y1="0%" x2="66.7%" y2="100%"><stop offset="20%" stop-color="#d4d0ff" stop-opacity="1"></stop><stop offset="80%" stop-color="#d4d0ff" stop-opacity="1"></stop></linearGradient></defs><defs><linearGradient id="grad2_1" x1="0%" y1="0%" x2="66.7%" y2="100%"><stop offset="20%" stop-color="#a8a4d5" stop-opacity="1"></stop><stop offset="80%" stop-color="#d4d0ff" stop-opacity="1"></stop></linearGradient></defs><defs><linearGradient id="grad2_2" x1="0%" y1="0%" x2="66.7%" y2="100%"><stop offset="20%" stop-color="#a8a4d5" stop-opacity="1"></stop><stop offset="80%" stop-color="#7e7aad" stop-opacity="1"></stop></linearGradient></defs><defs><linearGradient id="grad2_3" x1="0%" y1="0%" x2="66.7%" y2="100%"><stop offset="20%" stop-color="#565286" stop-opacity="1"></stop><stop offset="80%" stop-color="#7e7aad" stop-opacity="1"></stop></linearGradient></defs><defs><linearGradient id="grad2_4" x1="0%" y1="0%" x2="66.7%" y2="100%"><stop offset="20%" stop-color="#565286" stop-opacity="1"></stop><stop offset="80%" stop-color="#2f2d61" stop-opacity="1"></stop></linearGradient></defs><g transform="translate(900, 0)"><path d="M0 375C-36.9 350.3 -73.8 325.5 -135.1 326.1C-196.4 326.7 -282 352.7 -325.1 325.1C-368.1 297.4 -368.5 216.2 -369.6 153.1C-370.6 90 -372.3 45 -374 0L0 0Z" fill="#433f73"></path><path d="M0 300C-29.5 280.2 -59 260.4 -108.1 260.9C-157.1 261.4 -225.6 282.2 -260 260C-294.5 237.9 -294.8 172.9 -295.6 122.5C-296.5 72 -297.8 36 -299.2 0L0 0Z" fill="#6a6599"></path><path d="M0 225C-22.1 210.2 -44.3 195.3 -81.1 195.7C-117.8 196 -169.2 211.6 -195 195C-220.9 178.5 -221.1 129.7 -221.7 91.8C-222.4 54 -223.4 27 -224.4 0L0 0Z" fill="#938ec1"></path><path d="M0 150C-14.8 140.1 -29.5 130.2 -54 130.5C-78.5 130.7 -112.8 141.1 -130 130C-147.2 119 -147.4 86.5 -147.8 61.2C-148.2 36 -148.9 18 -149.6 0L0 0Z" fill="#bebaea"></path><path d="M0 75C-7.4 70.1 -14.8 65.1 -27 65.2C-39.3 65.3 -56.4 70.5 -65 65C-73.6 59.5 -73.7 43.2 -73.9 30.6C-74.1 18 -74.5 9 -74.8 0L0 0Z" fill="#d4d0ff"></path></g><g transform="translate(0, 600)"><path d="M0 -434C55.3 -424.3 110.6 -414.5 163.4 -394.5C216.2 -374.5 266.4 -344.1 304.1 -304.1C341.8 -264 366.9 -214.2 390.8 -161.9C414.7 -109.6 437.2 -54.8 459.7 0L0 0Z" fill="#433f73"></path><path d="M0 -347.2C44.3 -339.4 88.5 -331.6 130.7 -315.6C172.9 -299.6 213.1 -275.3 243.2 -243.2C273.4 -211.2 293.6 -171.3 312.6 -129.5C331.7 -87.7 349.7 -43.8 367.8 0L0 0Z" fill="#6a6599"></path><path d="M0 -260.4C33.2 -254.6 66.4 -248.7 98 -236.7C129.7 -224.7 159.8 -206.5 182.4 -182.4C205.1 -158.4 220.2 -128.5 234.5 -97.1C248.8 -65.7 262.3 -32.9 275.8 0L0 0Z" fill="#938ec1"></path><path d="M0 -173.6C22.1 -169.7 44.3 -165.8 65.4 -157.8C86.5 -149.8 106.5 -137.7 121.6 -121.6C136.7 -105.6 146.8 -85.7 156.3 -64.8C165.9 -43.8 174.9 -21.9 183.9 0L0 0Z" fill="#bebaea"></path><path d="M0 -86.8C11.1 -84.9 22.1 -82.9 32.7 -78.9C43.2 -74.9 53.3 -68.8 60.8 -60.8C68.4 -52.8 73.4 -42.8 78.2 -32.4C82.9 -21.9 87.4 -11 91.9 0L0 0Z" fill="#d4d0ff"></path></g></svg>