<svg id="visual" viewBox="0 0 900 600" width="900" height="600" xmlns="http://www.w3.org/2000/svg" xmlns:xlink="http://www.w3.org/1999/xlink" version="1.1"><path d="M0 460L25 456.7C50 453.3 100 446.7 150 444.5C200 442.3 250 444.7 300 446.2C350 447.7 400 448.3 450 442.5C500 436.7 550 424.3 600 424.8C650 425.3 700 438.7 750 442C800 445.3 850 438.7 875 435.3L900 432L900 601L875 601C850 601 800 601 750 601C700 601 650 601 600 601C550 601 500 601 450 601C400 601 350 601 300 601C250 601 200 601 150 601C100 601 50 601 25 601L0 601Z" fill="#d4d0ff"></path><path d="M0 468L25 468C50 468 100 468 150 463.5C200 459 250 450 300 447.8C350 445.7 400 450.3 450 456.3C500 462.3 550 469.7 600 470C650 470.3 700 463.7 750 460.5C800 457.3 850 457.7 875 457.8L900 458L900 601L875 601C850 601 800 601 750 601C700 601 650 601 600 601C550 601 500 601 450 601C400 601 350 601 300 601C250 601 200 601 150 601C100 601 50 601 25 601L0 601Z" fill="#a8a3d5"></path><path d="M0 498L25 501.2C50 504.3 100 510.7 150 512.2C200 513.7 250 510.3 300 504.3C350 498.3 400 489.7 450 484.3C500 479 550 477 600 479.3C650 481.7 700 488.3 750 492.8C800 497.3 850 499.7 875 500.8L900 502L900 601L875 601C850 601 800 601 750 601C700 601 650 601 600 601C550 601 500 601 450 601C400 601 350 601 300 601C250 601 200 601 150 601C100 601 50 601 25 601L0 601Z" fill="#7d79ad"></path><path d="M0 531L25 530.3C50 529.7 100 528.3 150 530.7C200 533 250 539 300 536.7C350 534.3 400 523.7 450 521C500 518.3 550 523.7 600 525.8C650 528 700 527 750 527.3C800 527.7 850 529.3 875 530.2L900 531L900 601L875 601C850 601 800 601 750 601C700 601 650 601 600 601C550 601 500 601 450 601C400 601 350 601 300 601C250 601 200 601 150 601C100 601 50 601 25 601L0 601Z" fill="#545186"></path><path d="M0 566L25 566C50 566 100 566 150 563.8C200 561.7 250 557.3 300 554.3C350 551.3 400 549.7 450 553C500 556.3 550 564.7 600 567.3C650 570 700 567 750 564.2C800 561.3 850 558.7 875 557.3L900 556L900 601L875 601C850 601 800 601 750 601C700 601 650 601 600 601C550 601 500 601 450 601C400 601 350 601 300 601C250 601 200 601 150 601C100 601 50 601 25 601L0 601Z" fill="#2c2d61"></path></svg>